<?xml version="1.0" encoding="utf-8"?>
<!-- Generator: Adobe Illustrator 25.4.1, SVG Export Plug-In . SVG Version: 6.00 Build 0)  -->
<svg version="1.1" id="Capa_1" xmlns="http://www.w3.org/2000/svg" xmlns:xlink="http://www.w3.org/1999/xlink" x="0px" y="0px"
	 viewBox="0 0 51.4 6.3" style="enable-background:new 0 0 51.4 6.3;" xml:space="preserve">
<style type="text/css">
	.st0{fill:#FFFFFF;}
</style>
<g>
	<path class="st0" d="M1.7,4.8L1.4,6H0l1.4-5.5h1.8L4.6,6H3.2L2.9,4.8H1.7z M2.7,3.8l-0.2-1C2.4,2.4,2.3,2,2.3,1.6h0
		C2.2,2,2.1,2.5,2,2.8l-0.2,1H2.7z"/>
	<path class="st0" d="M5.1,3.4c0-0.5,0-1,0-1.3h1.2l0.1,0.5h0c0.2-0.2,0.5-0.6,1.1-0.6c0.9,0,1.3,0.7,1.3,1.7V6H7.3V3.8
		c0-0.4-0.1-0.7-0.4-0.7c-0.2,0-0.4,0.2-0.4,0.3c0,0.1,0,0.2,0,0.3V6H5.1V3.4z"/>
	<path class="st0" d="M10.9,0.9V2h0.8v1h-0.8v1.3C10.9,4.8,11,5,11.3,5c0.1,0,0.2,0,0.3,0V6c-0.2,0.1-0.5,0.1-0.8,0.1
		c-0.4,0-0.7-0.1-0.9-0.3C9.7,5.5,9.6,5.2,9.6,4.5V3H9.1V2h0.5V1.2L10.9,0.9z"/>
	<path class="st0" d="M13.6,0.9c0,0.4-0.3,0.7-0.7,0.7c-0.4,0-0.7-0.3-0.7-0.7c0-0.4,0.3-0.7,0.7-0.7C13.3,0.2,13.6,0.5,13.6,0.9z
		 M12.2,6V2h1.4v4H12.2z"/>
	<path class="st0" d="M18,0.3v4.5c0,0.5,0,1,0,1.3h-1.2l-0.1-0.5h0c-0.2,0.4-0.7,0.6-1.1,0.6c-0.9,0-1.5-0.9-1.5-2.1
		c0-1.4,0.8-2.1,1.6-2.1c0.4,0,0.7,0.1,0.9,0.4h0v-2H18z M16.6,3.7c0-0.1,0-0.1,0-0.2c0-0.2-0.2-0.5-0.5-0.5c-0.4,0-0.6,0.4-0.6,1
		c0,0.6,0.3,1,0.6,1c0.2,0,0.4-0.2,0.5-0.4c0-0.1,0-0.2,0-0.3V3.7z"/>
	<path class="st0" d="M19.9,4.5c0,0.3,0.4,0.5,0.9,0.5c0.4,0,0.7,0,1-0.1l0.2,1C21.5,6,21,6.1,20.6,6.1c-1.3,0-2-0.8-2-2
		c0-1.1,0.6-2.1,1.9-2.1c1.1,0,1.7,0.8,1.7,2c0,0.3,0,0.5,0,0.6H19.9z M20.9,3.6c0-0.3-0.1-0.7-0.5-0.7c-0.4,0-0.5,0.4-0.6,0.7H20.9
		z"/>
	<path class="st0" d="M22.7,4.8c0.2,0.1,0.6,0.3,1,0.3c0.3,0,0.4-0.1,0.4-0.2c0-0.2-0.1-0.2-0.5-0.4c-0.8-0.3-1-0.8-1-1.2
		c0-0.8,0.6-1.4,1.6-1.4c0.4,0,0.8,0.1,1.1,0.2l-0.2,1c-0.2-0.1-0.5-0.2-0.8-0.2c-0.2,0-0.4,0.1-0.4,0.2c0,0.1,0.1,0.2,0.5,0.4
		c0.7,0.3,1,0.7,1,1.2c0,0.8-0.6,1.3-1.7,1.3c-0.5,0-0.9-0.1-1.2-0.3L22.7,4.8z"/>
	<path class="st0" d="M25.9,0.3h1.4V6h-1.4V0.3z"/>
	<path class="st0" d="M29.4,0.9c0,0.4-0.3,0.7-0.7,0.7c-0.4,0-0.7-0.3-0.7-0.7c0-0.4,0.3-0.7,0.7-0.7C29.1,0.2,29.4,0.5,29.4,0.9z
		 M28,6V2h1.4v4H28z"/>
	<path class="st0" d="M29.9,5.2l1-1.3c0.2-0.3,0.4-0.5,0.6-0.7v0H30V2h3v0.9l-0.9,1.2c-0.2,0.3-0.4,0.5-0.6,0.8v0h1.6V6h-3.2V5.2z"
		/>
	<path class="st0" d="M35.7,6l-0.1-0.4h0c-0.3,0.3-0.6,0.4-1,0.4c-0.7,0-1.2-0.6-1.2-1.3c0-1.1,0.9-1.5,2.1-1.5v0
		c0-0.2-0.1-0.4-0.6-0.4c-0.4,0-0.8,0.1-1,0.3l-0.2-0.9c0.2-0.1,0.8-0.4,1.5-0.4c1.3,0,1.7,0.8,1.7,1.8v1.4c0,0.4,0,0.7,0.1,1H35.7z
		 M35.5,4.2c-0.5,0-0.9,0.2-0.9,0.5c0,0.3,0.2,0.4,0.4,0.4c0.2,0,0.4-0.1,0.5-0.3c0-0.1,0-0.1,0-0.2V4.2z"/>
	<path class="st0" d="M37.6,3.4c0-0.5,0-1,0-1.3h1.2l0.1,0.5h0C39,2.3,39.4,1.9,40,1.9c0.9,0,1.3,0.7,1.3,1.7V6h-1.4V3.8
		c0-0.4-0.1-0.7-0.4-0.7c-0.2,0-0.4,0.2-0.4,0.3c0,0.1,0,0.2,0,0.3V6h-1.4V3.4z"/>
	<path class="st0" d="M43.5,0.9V2h0.8v1h-0.8v1.3c0,0.5,0.1,0.6,0.4,0.6c0.1,0,0.2,0,0.3,0V6c-0.2,0.1-0.5,0.1-0.8,0.1
		c-0.4,0-0.7-0.1-0.9-0.3c-0.2-0.2-0.4-0.6-0.4-1.2V3h-0.5V2h0.5V1.2L43.5,0.9z"/>
	<path class="st0" d="M45.9,4.5c0,0.3,0.4,0.5,0.9,0.5c0.3,0,0.7,0,1-0.1l0.2,1c-0.4,0.2-0.9,0.2-1.4,0.2c-1.3,0-2-0.8-2-2
		c0-1.1,0.6-2.1,1.9-2.1c1.1,0,1.7,0.8,1.7,2c0,0.3,0,0.5,0,0.6H45.9z M46.9,3.6c0-0.3-0.1-0.7-0.5-0.7c-0.4,0-0.5,0.4-0.6,0.7H46.9
		z"/>
	<path class="st0" d="M48.7,4.8c0.2,0.1,0.6,0.3,1,0.3c0.3,0,0.4-0.1,0.4-0.2c0-0.2-0.1-0.2-0.5-0.4c-0.8-0.3-1-0.8-1-1.2
		c0-0.8,0.6-1.4,1.6-1.4c0.4,0,0.8,0.1,1.1,0.2l-0.2,1c-0.2-0.1-0.5-0.2-0.8-0.2c-0.2,0-0.4,0.1-0.4,0.2c0,0.1,0.1,0.2,0.5,0.4
		c0.7,0.3,1,0.7,1,1.2c0,0.8-0.6,1.3-1.7,1.3c-0.5,0-0.9-0.1-1.2-0.3L48.7,4.8z"/>
</g>
</svg>
