<?xml version="1.0" encoding="utf-8"?>
<!-- Generator: Adobe Illustrator 25.4.1, SVG Export Plug-In . SVG Version: 6.00 Build 0)  -->
<svg version="1.1" id="Capa_1" xmlns="http://www.w3.org/2000/svg" xmlns:xlink="http://www.w3.org/1999/xlink" x="0px" y="0px"
	 viewBox="0 0 102.5 34.9" style="enable-background:new 0 0 102.5 34.9;" xml:space="preserve">
<g>
	<path d="M2.6,2.6C3,2.8,3.2,3.1,3.3,3.5c0.1,0.4,0.2,1.2,0.2,2.3c0,3.5,0,5.5-0.1,6.1c0,0.8-0.1,1.3-0.3,1.6
		c-0.1,0.3-0.4,0.6-0.7,0.8c-0.3,0.2-0.5,0.4-0.6,0.5c-0.1,0.1-0.1,0.3-0.1,0.5c0,1.1,1.4,1.7,4.3,1.7c1.5,0,2.6-0.1,3.3-0.3
		c0.6-0.2,1-0.6,1-1.1c0-0.4-0.2-0.8-0.7-1c-0.2-0.1-0.4-0.2-0.4-0.3C9.1,14,9.1,13.9,9,13.8c-0.1-0.6-0.2-1.4-0.2-2.4
		c0-0.7,0-1.1,0.1-1.3C9,9.9,9.2,9.8,9.5,9.8c0.5,0,0.9,0.2,1.2,0.5c0.3,0.3,0.5,0.8,0.7,1.6c0.3,1.2,0.5,2.1,0.7,2.6
		c0.2,0.6,0.5,1,0.8,1.4c0.7,0.8,1.7,1.2,3.3,1.2c1.1,0,2-0.2,2.7-0.5c0.3-0.1,0.5-0.3,0.7-0.6c0.2-0.3,0.3-0.5,0.3-0.7
		c0-0.2-0.1-0.4-0.2-0.5c-0.1-0.2-0.2-0.3-0.4-0.3c-0.5-0.1-0.8-0.3-0.9-0.4c-0.1-0.2-0.2-0.5-0.3-1c-0.2-1.3-0.4-2.2-0.8-2.8
		c-0.4-0.6-1-1.1-1.8-1.4c-0.4-0.1-0.6-0.3-0.6-0.6c0-0.2,0.1-0.3,0.4-0.5c0.6-0.3,1.1-0.8,1.4-1.4c0.3-0.6,0.5-1.3,0.5-2
		c0-1.3-0.5-2.3-1.5-3.1c-1.1-0.8-2.5-1.2-4.1-1.2c-0.3,0-0.8,0-1.6,0.1C8.9,0.3,7.9,0.4,7.2,0.4c-0.4,0-0.7,0-0.9,0
		c-1-0.1-1.7-0.1-1.9-0.1c-0.6,0-1,0-1.4,0.1C2.6,0.5,2.3,0.6,2.1,0.9C1.9,1.1,1.7,1.3,1.7,1.6c0,0.2,0.1,0.4,0.2,0.5
		C2,2.3,2.3,2.5,2.6,2.6z M8.7,6.5l0.1-2.8c0-0.4,0.1-0.6,0.2-0.8c0.1-0.1,0.3-0.2,0.6-0.2c1.1,0,1.6,0.8,1.6,2.3
		c0,0.8-0.2,1.4-0.5,1.7C10.5,7.2,10,7.3,9.3,7.3c-0.2,0-0.4,0-0.5-0.1C8.8,7.1,8.7,6.9,8.7,6.6C8.7,6.6,8.7,6.5,8.7,6.5z"/>
	<path d="M21.8,15.6c1.1,1,2.5,1.5,4.1,1.5c1.6,0,3-0.5,4.3-1.4c0.7-0.5,1-1.1,1-1.7c0-0.3-0.1-0.5-0.3-0.8
		c-0.2-0.3-0.4-0.4-0.6-0.4c-0.2,0-0.4,0.1-0.6,0.3c-0.3,0.2-0.7,0.4-1.1,0.5c-0.5,0.1-0.9,0.2-1.2,0.2c-0.6,0-1.2-0.2-1.8-0.7
		c-0.5-0.5-0.8-0.9-0.8-1.5c0-0.2,0.1-0.3,0.4-0.3h5.5c0.3,0,0.6-0.2,0.8-0.5c0.2-0.3,0.3-0.8,0.3-1.3c0-0.6-0.2-1.3-0.5-2
		C30.9,7,30.5,6.5,30,6.1c-1-0.9-2.3-1.3-3.8-1.3c-0.9,0-1.8,0.2-2.6,0.5c-1.1,0.5-1.9,1.1-2.6,2.1c-0.8,1.1-1.2,2.3-1.2,3.6
		c0,1,0.2,1.9,0.7,2.9C20.8,14.5,21.3,15.1,21.8,15.6z M25,7.5c0.2-0.4,0.6-0.5,1-0.5c0.4,0,0.7,0.1,0.9,0.4
		c0.2,0.3,0.4,0.6,0.4,1.1c0,0.5-0.2,0.7-0.7,0.7h-1.2c-0.3,0-0.5,0-0.6-0.1c-0.1-0.1-0.2-0.3-0.2-0.5C24.7,8.1,24.8,7.8,25,7.5z"/>
	<path d="M33.1,16.9c-0.3,0.1-0.5,0.3-0.6,0.6c-0.2,0.3-0.3,0.6-0.3,0.9c0,0.4,0.1,0.9,0.4,1.3c0.3,0.4,0.7,0.8,1.2,1
		c1.1,0.5,2.5,0.8,4.2,0.8c1.4,0,2.6-0.2,3.6-0.5c1.3-0.4,2.3-1.1,3-2c0.6-0.8,0.9-1.5,0.9-2.3c0-0.5-0.1-1-0.4-1.4
		c-0.2-0.4-0.6-0.8-1-1c-0.5-0.3-1.2-0.5-2.1-0.5c-0.6,0-1.5,0.1-2.8,0.3c-0.6,0.1-1.1,0.1-1.4,0.1c-0.5,0-0.8-0.1-1.1-0.2
		c-0.3-0.2-0.4-0.4-0.4-0.6c0-0.4,0.2-0.6,0.6-0.6c0.1,0,0.3,0,0.5,0c0.2,0,0.5,0,0.8,0c1.1,0,2-0.2,2.9-0.5
		c0.9-0.3,1.6-0.8,2.2-1.3c0.6-0.6,0.9-1.4,0.9-2.4c0-0.1,0-0.3,0-0.5c0-0.2,0-0.3,0-0.3c0-0.1,0.1-0.2,0.3-0.4
		c0.3-0.2,0.5-0.6,0.7-1c0.2-0.4,0.3-0.8,0.3-1.1c0-0.3-0.1-0.6-0.2-0.8c-0.1-0.2-0.3-0.3-0.5-0.3c-0.1,0-0.2,0.1-0.4,0.2
		c-0.8,0.7-1.7,1-2.5,1c-0.3,0-0.8-0.1-1.5-0.2c-0.7-0.2-1.4-0.2-2-0.2c-1.5,0-2.9,0.4-4.2,1.3c-0.5,0.3-0.9,0.8-1.2,1.2
		c-0.3,0.5-0.4,1-0.4,1.5c0,1,0.4,1.9,1.2,2.7c0.2,0.2,0.4,0.4,0.4,0.5c0,0.1-0.1,0.2-0.3,0.3c-0.4,0.2-0.8,0.5-1.1,0.9
		c-0.3,0.4-0.4,0.8-0.4,1.2c0,0.6,0.3,1.1,0.9,1.7c0.2,0.2,0.3,0.3,0.3,0.4C33.4,16.7,33.3,16.8,33.1,16.9z M37.4,7.1
		c0.2-0.3,0.5-0.5,0.9-0.5c0.5,0,0.8,0.3,1.1,0.7c0.3,0.5,0.4,1.1,0.4,2c0,0.5-0.1,1-0.4,1.3c-0.2,0.3-0.6,0.5-1,0.5
		c-0.4,0-0.8-0.3-1-0.8c-0.3-0.5-0.4-1.2-0.4-2.1C37.1,7.8,37.2,7.4,37.4,7.1z M35.8,17.5c0,0,0.1,0,0.2,0c0.2,0,0.4,0.1,0.7,0.1
		c0.4,0,0.7,0.1,1.1,0.1c0.5,0,1,0,1.5-0.1c0.2,0,0.4,0,0.5,0c0.2,0,0.4,0.1,0.6,0.2c0.2,0.1,0.2,0.3,0.2,0.5c0,0.4-0.2,0.7-0.6,0.9
		c-0.4,0.2-1,0.3-1.8,0.3c-0.8,0-1.4-0.1-1.9-0.4c-0.5-0.3-0.7-0.7-0.7-1.1C35.5,17.6,35.6,17.5,35.8,17.5z"/>
	<path d="M51.2,10c-2,0-3.6,0.5-4.6,1.5c-0.7,0.6-1,1.4-1,2.2c0,0.5,0.1,1,0.4,1.5c0.2,0.5,0.6,0.9,1,1.2c0.6,0.4,1.5,0.7,2.5,0.7
		c1,0,1.9-0.3,2.6-0.9c0.3-0.2,0.5-0.3,0.6-0.3c0.1,0,0.3,0.1,0.5,0.3c0.5,0.6,1.1,0.9,1.9,0.9c0.6,0,1.2-0.2,1.8-0.5
		c0.5-0.3,0.9-0.6,1.2-1c0.3-0.4,0.4-0.8,0.4-1.2c0-0.3-0.1-0.5-0.4-0.5c-0.2,0-0.4-0.1-0.5-0.1c-0.1,0-0.2-0.2-0.2-0.3
		c-0.2-0.4-0.3-1.2-0.3-2.4l0-1.8c0-0.8-0.1-1.5-0.3-2c-0.2-0.5-0.5-0.9-1-1.3c-0.9-0.7-2.1-1.1-3.4-1.1c-1.5,0-3,0.4-4.4,1.1
		c-0.5,0.3-0.9,0.6-1.2,1c-0.3,0.4-0.4,0.8-0.4,1.1c0,0.4,0.1,0.7,0.4,0.9c0.2,0.2,0.6,0.3,0.9,0.3c0.8,0,1.5-0.5,2.2-1.5
		c0.3-0.4,0.5-0.6,0.7-0.8c0.2-0.1,0.4-0.2,0.6-0.2c0.4,0,0.7,0.2,0.8,0.6c0.2,0.4,0.3,1,0.3,1.8c0,0.3-0.1,0.5-0.2,0.6
		C52,9.9,51.7,10,51.2,10z M52.3,12.8c0,1.1-0.3,1.6-0.9,1.6c-0.3,0-0.5-0.1-0.7-0.4c-0.2-0.2-0.3-0.5-0.3-0.9c0-0.4,0.1-0.7,0.4-1
		c0.3-0.3,0.5-0.4,0.9-0.4c0.2,0,0.4,0.1,0.5,0.2C52.3,12.1,52.3,12.4,52.3,12.8z"/>
	<path d="M59.8,4.1c0.4,0.3,0.7,0.7,0.8,1.2c0.1,0.6,0.2,1.8,0.2,3.8c0,1.9-0.1,3.4-0.2,4.4c-0.1,0.6-0.3,1-0.6,1.1
		c-0.3,0.1-0.5,0.3-0.6,0.4c-0.1,0.1-0.1,0.3-0.1,0.4c0,0.2,0.1,0.5,0.3,0.7c0.2,0.2,0.4,0.4,0.7,0.5c0.6,0.2,1.7,0.3,3.2,0.3
		c1.3,0,2.3-0.1,2.8-0.3c0.3-0.1,0.5-0.2,0.7-0.5c0.2-0.2,0.3-0.5,0.3-0.7c0-0.2,0-0.4-0.1-0.5c-0.1-0.1-0.3-0.2-0.6-0.4
		c-0.3-0.2-0.5-0.4-0.6-0.6c-0.1-0.3-0.1-1.3-0.1-3V7.2c0-1.2,0.1-2.5,0.2-3.9c0.1-0.9,0.1-1.5,0.1-1.8c0-0.8-0.3-1.2-0.9-1.2
		c-0.4,0-1,0.1-1.9,0.2c-0.9,0.2-1.6,0.3-2.1,0.5c-0.8,0.2-1.4,0.5-1.7,0.8c-0.4,0.3-0.5,0.6-0.5,1c0,0.2,0.1,0.5,0.2,0.6
		C59.2,3.7,59.4,3.9,59.8,4.1z"/>
	<path d="M81.2,10.9c0-1-0.2-1.9-0.7-2.9c-0.5-0.9-1.1-1.6-1.9-2.1c-1.1-0.8-2.3-1.1-3.7-1.1c-2,0-3.8,0.6-5.2,1.9
		c-1.4,1.2-2.1,2.7-2.1,4.6c0,1.7,0.6,3.1,1.7,4.1c1.2,1.1,2.7,1.6,4.5,1.6c1.9,0,3.6-0.6,5.1-1.7C80.4,14.1,81.2,12.6,81.2,10.9z
		 M74.9,14.1c-0.5,0-0.9-0.3-1.2-1c-0.2-0.6-0.4-1.4-0.6-2.2s-0.3-1.5-0.3-2c0-0.4,0.1-0.8,0.3-1c0.2-0.3,0.5-0.4,0.8-0.4
		c0.5,0,0.8,0.3,1.1,0.8c0.2,0.5,0.5,1.2,0.6,2.1c0.2,0.9,0.3,1.6,0.3,2.3C75.9,13.6,75.6,14.1,74.9,14.1z"/>
	<path d="M83.1,16.5c0.2,0.2,0.5,0.3,0.9,0.3c0.1,0,0.3,0,0.5,0c0.1,0,0.2,0,0.3,0c0.1,0,0.5,0,1.3,0.1c0.8,0.1,1.4,0.2,1.7,0.2
		c1.2,0,2.2-0.3,3-1c0.9-0.7,1.4-1.7,1.4-2.8c0-0.9-0.3-1.6-0.9-2.2c-0.7-0.7-1.7-1.4-3-2c-0.7-0.3-1.1-0.7-1.1-1.1
		c0-0.2,0.1-0.4,0.2-0.6c0.2-0.2,0.3-0.2,0.6-0.2c0.3,0,0.7,0.2,1.2,0.7c0.5,0.5,0.8,0.8,1,0.9C90.5,8.9,90.7,9,91,9
		c0.3,0,0.6-0.1,0.8-0.3c0.2-0.2,0.3-0.5,0.3-0.8c0-0.3-0.1-0.7-0.3-1.2c-0.2-0.4-0.4-0.9-0.7-1.2C90.8,5,90.4,4.8,90,4.8
		c-0.1,0-0.3,0-0.5,0.1C89.2,5,89,5.1,88.8,5.1c-0.1,0-0.3,0-0.4,0c-0.9-0.2-1.5-0.3-1.9-0.3c-1.4,0-2.5,0.5-3.3,1.5
		c-0.6,0.7-0.9,1.5-0.9,2.5c0,0.9,0.3,1.7,0.8,2.3c0.6,0.7,1.5,1.3,2.7,2c0.6,0.3,0.9,0.6,0.9,1c0,0.2-0.1,0.4-0.2,0.6
		c-0.2,0.1-0.4,0.2-0.6,0.2c-0.2,0-0.5-0.1-0.7-0.2c-0.2-0.1-0.5-0.4-0.8-0.7c-0.6-0.6-1-1-1.1-1.2c-0.2-0.1-0.4-0.2-0.6-0.2
		c-0.6,0-0.8,0.4-0.8,1.1c0,0.5,0.1,1,0.4,1.6C82.5,15.8,82.8,16.2,83.1,16.5z"/>
	<path d="M102,12.5c-0.1-0.1-0.3-0.1-0.4-0.1c-0.1,0-0.2,0.1-0.3,0.2c-2.5,1.4-4.8,2.9-7.1,4.5c-2.7,2-5.2,4.1-7.4,6.7
		c-0.4,0.5-0.8,1-1.2,1.5c0.7,0.4,1.3,0.8,1,1.7c0.1,0,0.1,0,0.1,0c0.1,0,0.2-0.1,0.2-0.1c2.2-1.1,4.2-2.6,6.1-4.2
		c2.8-2.4,5.3-5.1,7.6-7.9c0.5-0.6,0.9-1.2,1.4-1.8C102.1,12.8,102.2,12.6,102,12.5z"/>
	<path d="M82.5,25.8c-0.3,0.3-0.6,0.6-0.9,0.9c-0.4,0.6-1,0.8-1.7,0.7c-0.1,0-0.2,0-0.4,0c-0.4,0-0.6,0.2-0.4,0.5
		c0.2,0.4,0.5,0.8,0.8,1.1c0.8,0.8,1.9,1,3,1c2-0.1,3.4-1.5,3.4-3.5c0-0.1,0-0.2-0.1-0.3C85.2,25.2,83.7,24.8,82.5,25.8z"/>
	<path d="M48.6,22.4c-0.2,0.3-0.4,0.6-0.4,0.8c0,0.2,0.1,0.3,0.2,0.4c0.1,0.1,0.3,0.2,0.4,0.2c0.3,0,0.5-0.2,0.7-0.5
		c0.2-0.3,0.3-0.6,0.3-0.8c0-0.2-0.1-0.4-0.2-0.5c-0.1-0.1-0.3-0.2-0.4-0.2C49.1,21.9,48.8,22.1,48.6,22.4z"/>
	<path d="M77,28.9c-0.3,0.1-0.5,0.2-0.7,0.2c-0.1,0-0.3,0-0.5-0.1c0.5-0.3,0.9-0.7,1.2-1c0.3-0.3,0.6-0.7,0.7-1
		c0.2-0.3,0.3-0.7,0.3-1.1c0-0.3,0-0.5-0.1-0.7c0-0.2-0.1-0.5-0.2-0.8c-0.1-0.3-0.1-0.5-0.1-0.6c0-0.1,0-0.2,0-0.3l-0.1-0.2
		c-0.1-0.1-0.3-0.1-0.4-0.1c-0.5,0-0.8,0.4-0.9,1.1c-0.5,0.6-1.5,1.7-3,3.3v0.1c-0.1,0.1-0.2,0.2-0.3,0.2c-0.1,0.1-0.2,0.1-0.2,0.2
		c-0.1,0-0.2,0.1-0.3,0.1h-0.1l-0.2-0.2c0.2-0.4,0.4-0.8,0.5-1.2c0.1-0.4,0.2-0.8,0.2-1c0-0.3,0-0.5-0.1-0.6
		c-0.1-0.1-0.2-0.2-0.4-0.2c0.1-0.2,0.2-0.3,0.2-0.4c0-0.2-0.1-0.3-0.2-0.4c-0.2-0.1-0.4-0.1-0.6-0.1c-0.4,0-0.8,0.1-1.2,0.4
		c-0.4,0.2-0.8,0.6-1.2,0.9c-0.4,0.4-0.7,0.8-0.9,1.3c-0.2,0.4-0.3,0.8-0.3,1.2c-0.4,0.4-0.8,0.7-1,0.9c-0.3,0.2-0.5,0.3-0.7,0.3
		c-0.3,0-0.5-0.3-0.5-0.8c0-0.6,0.1-1.2,0.4-1.9c0.3-0.7,0.7-1.4,1.1-2s0.8-1.4,1.3-2.1c0.4-0.7,0.6-1.2,0.6-1.5
		c0-0.2-0.1-0.3-0.2-0.4c-0.1-0.1-0.2-0.2-0.3-0.2c-0.1,0-0.3,0.2-0.6,0.5c-0.3,0.4-0.6,0.9-1,1.6c-0.4,0.7-0.8,1.5-1.2,2.5
		c-0.3-0.4-0.5-0.5-0.8-0.5c-0.3,0-0.8,0.2-1.5,0.6c-0.7,0.4-1.3,0.8-1.8,1.4C61.3,26.8,61,27.4,61,28c0,0,0,0,0,0
		c-0.7,0.6-1.2,0.9-1.5,0.9c-0.4,0-0.6-0.2-0.6-0.6c0-0.3,0.1-0.5,0.2-0.7c0.1-0.2,0.3-0.5,0.6-0.8c0.3-0.4,0.4-0.6,0.4-0.8
		c0-0.1,0-0.1-0.1-0.2c0-0.1-0.1-0.2-0.1-0.4c-0.1-0.1-0.1-0.3-0.2-0.4c0.2-0.1,0.3-0.1,0.4-0.2c0.1,0,0.1-0.1,0.1-0.2
		c0-0.1,0-0.2-0.1-0.3c-0.1-0.1-0.1-0.2-0.2-0.4s-0.2-0.2-0.3-0.2c-0.4,0-1.1,0.2-1.9,0.6c-0.8,0.4-1.6,1-2.5,1.8
		c-0.3,0.3-0.6,0.6-0.7,0.8c-0.1,0.2-0.2,0.4-0.3,0.6c0,0.1-0.1,0.3-0.1,0.4l-1.9,1.5c-0.1-0.4-0.2-0.6-0.4-0.8
		c-0.1-0.2-0.4-0.3-0.7-0.5c0.4-0.4,0.8-0.6,1.1-0.8c0.3-0.2,0.6-0.4,0.9-0.6c0.3-0.2,0.5-0.4,0.6-0.4c0.1-0.1,0.1-0.1,0.1-0.2
		c0-0.1-0.1-0.5-0.2-1.1c0-0.2-0.1-0.4-0.3-0.4c-0.2,0-0.4,0.1-0.9,0.2c-0.4,0.1-0.8,0.2-1.1,0.2c-0.1,0-0.1,0-0.1-0.1
		c0-0.1,0-0.1,0.1-0.1c0,0,0.1-0.1,0.1-0.1c0-0.2-0.1-0.2-0.3-0.2c-0.2,0-0.4,0.1-0.7,0.3c-0.3,0.2-0.5,0.5-0.7,0.8
		c-0.2,0.3-0.3,0.5-0.3,0.7c0,0.2,0.2,0.3,0.5,0.4c-0.3,0.6-0.6,1.1-1,1.4V28c-0.3,0.3-0.7,0.5-0.9,0.7c-0.3,0.2-0.6,0.3-0.9,0.3
		c-0.2,0-0.4-0.1-0.6-0.2c-0.2-0.1-0.2-0.3-0.2-0.5c0-0.2,0.1-0.5,0.2-0.6c0.1-0.2,0.5-0.5,1-1c0.2-0.2,0.4-0.4,0.6-0.8
		c0.2-0.4,0.3-0.7,0.3-0.9c0-0.3-0.2-0.4-0.5-0.4c-0.7,0-1.4,0.6-2.2,1.9c-0.2,0.3-0.3,0.5-0.3,0.6c-0.1,0.1-0.1,0.3-0.2,0.5
		c0,0.1,0,0.2,0,0.4c-0.4,0.4-0.6,0.6-0.8,0.7c-0.2,0.2-0.4,0.3-0.5,0.4c-0.2,0.1-0.3,0.2-0.5,0.2c-0.3,0-0.5-0.1-0.6-0.3
		c-0.2-0.2-0.2-0.5-0.2-0.9c0-0.2,0-0.4,0.1-0.7c1.1-1.2,2-2.4,2.7-3.6c0.6-1.2,1-2.2,1-3c0-0.3,0-0.4-0.1-0.6
		c0-0.1-0.1-0.2-0.2-0.2c-0.1,0-0.2,0.1-0.4,0.2c-0.4,0.2-0.9,0.7-1.4,1.3c-0.5,0.6-1,1.3-1.4,2.2c-0.5,0.8-0.8,1.7-1.1,2.5
		c-0.2,0.7-0.4,1.3-0.4,1.9c-0.7,0.6-1.2,0.8-1.5,0.8c-0.4,0-0.6-0.2-0.6-0.6c0-0.3,0.1-0.5,0.2-0.7c0.1-0.2,0.3-0.5,0.6-0.8
		c0.3-0.4,0.4-0.6,0.4-0.8c0-0.1,0-0.1-0.1-0.2c0-0.1-0.1-0.2-0.1-0.4c-0.1-0.1-0.1-0.3-0.2-0.4c0.2-0.1,0.3-0.1,0.4-0.2
		c0.1,0,0.1-0.1,0.1-0.2c0-0.1,0-0.2-0.1-0.3c-0.1-0.1-0.1-0.2-0.2-0.4c-0.1-0.1-0.2-0.2-0.3-0.2c-0.4,0-1.1,0.2-1.9,0.6
		c-0.8,0.4-1.6,1-2.5,1.8c-0.3,0.3-0.6,0.6-0.7,0.8c-0.1,0.2-0.2,0.4-0.3,0.6c0,0.1-0.1,0.3-0.1,0.4c-0.4,0.3-0.7,0.6-1,0.7
		c-0.3,0.2-0.5,0.3-0.6,0.3c-0.2,0-0.3-0.1-0.3-0.4c0-0.4,0.5-1.2,1.5-2.4c0.2-0.3,0.4-0.5,0.4-0.6c0-0.3,0-0.5-0.1-0.8
		c-0.1-0.3-0.2-0.4-0.3-0.4c-0.2,0-0.4,0.1-0.7,0.3c-0.5,0.4-1,0.7-1.4,1.1c-0.4,0.4-0.8,0.8-1.1,1.1c-0.3,0.4-0.6,0.7-0.8,0.9
		c-0.2,0.2-0.3,0.3-0.4,0.3c-0.1,0-0.2-0.1-0.2-0.3c0-0.3,0.4-1,1.3-2c0.1-0.2,0.2-0.3,0.3-0.3c0-0.1,0.1-0.1,0.1-0.2
		c0-0.1,0.1-0.1,0.1-0.2c0-0.1-0.1-0.2-0.2-0.3c-0.1-0.1-0.3-0.1-0.4-0.1c-0.3,0-0.5,0.1-0.8,0.4c-0.3,0.3-0.6,0.7-1,1.3
		c-0.2,0.3-0.3,0.6-0.4,0.8c0,0.1-0.1,0.2-0.1,0.4c-0.1,0.1-0.2,0.2-0.2,0.2c-0.1,0.1-0.2,0.1-0.2,0.2c-0.1,0-0.2,0.1-0.3,0.1h-0.1
		l-0.2-0.2c0.2-0.4,0.4-0.8,0.5-1.2c0.1-0.4,0.2-0.8,0.2-1c0-0.3,0-0.5-0.1-0.6c-0.1-0.1-0.2-0.2-0.4-0.2c0.1-0.2,0.2-0.3,0.2-0.4
		c0-0.2-0.1-0.3-0.2-0.4c-0.2-0.1-0.4-0.1-0.6-0.1c-0.4,0-0.8,0.1-1.2,0.4c-0.4,0.2-0.8,0.6-1.2,0.9c-0.4,0.4-0.7,0.8-0.9,1.3
		c-0.2,0.4-0.3,0.8-0.3,1.1c-0.3,0.2-0.5,0.4-0.7,0.6c-0.3,0.2-0.6,0.4-0.8,0.5s-0.5,0.2-0.7,0.2c-0.1,0-0.3,0-0.5-0.1
		c0.5-0.3,0.9-0.7,1.2-1c0.3-0.3,0.6-0.7,0.7-1c0.2-0.3,0.3-0.7,0.3-1.1c0-0.3,0-0.5-0.1-0.7c0-0.2-0.1-0.5-0.2-0.8
		c-0.1-0.3-0.1-0.5-0.1-0.6c0-0.1,0-0.2,0-0.3l-0.1-0.2c-0.1-0.1-0.3-0.1-0.4-0.1c-0.5,0-0.8,0.4-0.9,1.1c-0.5,0.6-1.5,1.7-3,3.3
		v0.1c-0.7,0.6-1.3,0.9-1.6,0.9c-0.3,0-0.5-0.1-0.5-0.4c0-0.2,0.1-0.5,0.3-0.9c0.2-0.4,0.5-0.7,0.8-1.1c0.3-0.3,0.4-0.5,0.5-0.6
		c0.1-0.1,0.2-0.3,0.2-0.4c0-0.2,0-0.4-0.1-0.6c-0.1-0.2-0.1-0.3-0.2-0.4c0,0-0.1,0-0.2,0c-0.3,0-1,0.1-2.2,0.3
		c0.2-0.3,0.3-0.5,0.3-0.6c0-0.1-0.1-0.2-0.2-0.2c-0.1,0-0.1,0-0.2,0.1c-0.2,0.1-0.4,0.3-0.7,0.5c-0.2,0.3-0.5,0.6-0.6,0.9
		c-0.2,0.3-0.3,0.6-0.3,0.8c0,0.2,0,0.3,0.1,0.4c0.1,0.1,0.2,0.2,0.4,0.2c-0.2,0.3-0.4,0.6-0.7,0.9v0.1c-0.3,0.3-0.6,0.5-0.8,0.7
		c-0.3,0.2-0.6,0.4-0.9,0.5c-0.3,0.1-0.6,0.2-0.9,0.2c-0.3,0-0.5-0.1-0.6-0.3c-0.2-0.2-0.2-0.5-0.2-0.8V28c0.8-0.3,1.5-0.7,2-1
		c0.5-0.4,0.9-0.7,1.2-1.1c0.3-0.4,0.4-0.7,0.4-1.1c0-0.2-0.1-0.4-0.2-0.6c-0.2-0.1-0.4-0.2-0.6-0.2c-0.3,0-0.7,0.1-1.1,0.3
		c-0.4,0.2-0.8,0.5-1.3,0.8c-0.6,0.5-1.1,1.1-1.4,1.6c-0.2,0.3-0.3,0.7-0.4,1.1c-1,0.9-1.8,1.3-2.4,1.3c-0.2,0-0.4,0-0.6-0.1
		c0.6-0.5,1-1,1.4-1.5c0.4-0.5,0.7-0.9,0.9-1.3c0.2-0.4,0.3-0.8,0.3-1.3c0-0.2,0-0.3-0.1-0.3c0-0.1-0.2-0.1-0.3-0.1
		c-0.2,0-0.5,0.1-0.7,0.2C6.5,24.8,6.3,25,6,25.2c-0.3,0.2-0.6,0.4-1,0.8c-0.4,0.3-0.7,0.6-1.1,0.9c0.4-0.8,0.7-1.4,1-1.9
		c0.3-0.5,0.6-0.9,0.9-1.2c0.2-0.2,0.4-0.5,0.6-0.7c0.2-0.2,0.2-0.4,0.2-0.5c0-0.2-0.1-0.2-0.3-0.2c-0.4,0-0.7,0.1-1,0.3
		c-0.3,0.2-0.5,0.5-0.9,1c-0.3,0.5-0.8,1.1-1.4,1.8c-0.6,0.8-1.3,1.6-2,2.5v0.6C2,27.7,3,26.6,4.3,24.9c-0.5,1.1-1.2,2.4-2.1,4
		c-0.1,0.2-0.3,0.5-0.5,0.8c-0.3,0.4-0.5,0.8-0.7,1.1c-0.2,0.4-0.4,0.8-0.5,1.2c-0.1,0.4-0.2,0.8-0.2,1.2c0,0.4,0.1,0.7,0.4,0.7
		c0.1,0,0.2-0.1,0.3-0.2c0.3-0.3,0.5-0.6,0.6-1s0.3-0.8,0.6-1.4c0.2-0.6,0.4-1.1,0.6-1.4c0.3,0.2,0.5,0.2,0.7,0.2c0,0,0.1,0,0.3-0.1
		c0.1,0,0.2,0.1,0.4,0.1c0.2,0.1,0.3,0.1,0.4,0.2c0.1,0,0.2,0.1,0.4,0.1c0.1,0,0.2,0,0.4,0c0.3,0,0.6-0.1,1-0.3
		c0.4-0.2,0.7-0.5,1.2-0.8c0.3-0.3,0.6-0.6,1-0.9c0,0.7,0.2,1.2,0.4,1.6c0.3,0.4,0.7,0.6,1.2,0.6c0.6,0,1.1-0.2,1.7-0.6
		c0.6-0.4,1.2-1,1.8-1.8v-0.1c0.5-0.5,1-1.1,1.3-1.7c0.1,0,0.3-0.1,0.5-0.1c0.2,0,0.4-0.1,0.6-0.1c0.2,0,0.4-0.1,0.5-0.1
		c-0.3,0.4-0.6,0.7-0.8,1.1c-0.2,0.4-0.4,0.7-0.5,1c-0.1,0.3-0.2,0.6-0.2,0.8c0,0.4,0.1,0.7,0.2,1c0.2,0.2,0.4,0.3,0.6,0.3
		c0.2,0,0.4-0.1,0.7-0.3c0.3-0.2,0.5-0.4,0.8-0.7c0.3-0.2,0.6-0.6,1-1c0,0.2,0,0.4,0.1,0.5c0.1,0.3,0.2,0.5,0.5,0.8
		c0.4,0.5,0.9,0.7,1.5,0.7c0.4,0,0.9-0.2,1.5-0.6c0.5-0.3,1.1-0.8,1.7-1.4c0,0.3,0.1,0.5,0.2,0.7c0.2,0.4,0.4,0.7,0.6,0.9
		c0.3,0.2,0.5,0.3,0.9,0.3c0.6,0,1.2-0.4,1.9-1.3c0.4,0,0.7,0,1-0.1c0.2-0.1,0.4-0.3,0.7-0.5c0,0.4,0.1,0.8,0.2,1.1
		c0.2,0.4,0.3,0.6,0.5,0.6c0.1,0,0.2-0.1,0.4-0.2c0.1-0.1,0.3-0.4,0.5-0.7c0.2-0.3,0.5-0.7,0.7-0.9c0.2-0.3,0.5-0.6,0.8-0.9
		c0.5-0.5,0.9-0.8,1.2-1c-0.3,0.5-0.5,0.9-0.7,1.2c-0.2,0.4-0.4,0.6-0.5,0.8c-0.1,0.2-0.2,0.4-0.2,0.6c-0.1,0.2-0.1,0.4-0.1,0.5
		c0,0.6,0.2,0.9,0.7,0.9c0.3,0,0.6-0.2,1-0.5c0.4-0.3,0.9-0.8,1.6-1.5c0,0.2,0.1,0.5,0.2,0.7c0.1,0.3,0.3,0.6,0.5,0.9
		c0.2,0.2,0.3,0.3,0.5,0.3c0.3,0,0.6-0.2,1-0.6c0.4-0.4,1-1.1,1.8-2c-0.3,0.9-0.5,1.5-0.5,2c0,0.3,0,0.5,0.1,0.7
		c0.1,0.1,0.2,0.2,0.5,0.2c0.6,0,1.5-0.7,2.7-2.1c0,0.5,0.1,1,0.3,1.4c0.2,0.4,0.5,0.7,0.9,0.7c0.7,0,1.6-0.7,2.6-2.1
		c0,0.4,0.1,0.8,0.3,1.2c0.2,0.5,0.6,0.7,1,0.7c0.3,0,0.7-0.2,1.2-0.6c0.5-0.4,1-0.9,1.5-1.6v-0.3c0.1-0.1,0.2-0.3,0.3-0.4
		c0.3-0.4,0.5-0.8,0.8-1.2c0.4,0,0.8-0.1,1.3-0.2c0.5-0.1,0.9-0.2,1.2-0.2c-2.1,1.5-3.2,2.4-3.2,2.6c0,0.2,0.2,0.4,0.5,0.5
		c0.3,0.1,0.5,0.2,0.7,0.3s0.3,0.4,0.3,0.8c-0.6,0.5-1.2,0.8-1.5,1.1c-0.4,0.3-0.7,0.6-1,0.9c-0.3,0.3-0.5,0.6-0.6,0.9
		c-0.1,0.3-0.2,0.6-0.2,1c0,0.2,0,0.4,0.1,0.5c0.1,0.1,0.2,0.2,0.4,0.2c0.2,0,0.5-0.1,0.9-0.4c0.4-0.3,0.8-0.7,1.3-1.1
		c0.4-0.5,0.8-1,1.1-1.5c0.3-0.6,0.5-1.1,0.6-1.7l1.9-1.6c0,0.3,0.1,0.5,0.2,0.8c0.1,0.3,0.3,0.6,0.5,0.9c0.2,0.2,0.3,0.3,0.5,0.3
		c0.3,0,0.6-0.2,1-0.6c0.4-0.4,1-1.1,1.8-2c-0.3,0.9-0.5,1.5-0.5,2c0,0.3,0,0.5,0.1,0.7c0.1,0.1,0.2,0.2,0.5,0.2
		c0.6,0,1.5-0.7,2.8-2.1c0,0.2,0.1,0.4,0.1,0.6c0.1,0.4,0.3,0.7,0.5,0.9s0.3,0.4,0.5,0.4c0.1,0,0.3-0.1,0.5-0.3
		c0.2-0.2,0.6-0.5,1-0.9c0.4-0.4,0.8-0.9,1.3-1.5c-0.1,0.6-0.2,1.2-0.2,1.8c0,0.4,0.1,0.7,0.2,0.9c0.1,0.2,0.3,0.3,0.6,0.3
		c0.6,0,1.5-0.7,2.6-2.2c0,0.2,0.1,0.5,0.2,0.7c0.2,0.4,0.4,0.7,0.6,0.9c0.3,0.2,0.5,0.3,0.9,0.3c0.6,0,1.2-0.4,1.9-1.3
		c0.4,0,0.7,0,1-0.1c0.2-0.1,0.4-0.3,0.7-0.5c0,0.2,0,0.4,0.1,0.5c0.1,0.3,0.2,0.5,0.5,0.8c0.4,0.5,0.9,0.7,1.5,0.7
		c0.4,0,0.9-0.2,1.5-0.6c0.6-0.4,1.2-0.9,1.9-1.6v-0.6c-0.4,0.3-0.7,0.6-1,0.8C77.6,28.7,77.3,28.8,77,28.9z M44,23.5
		c0.4-0.8,0.8-1.4,1.2-1.7c0.1-0.1,0.2-0.1,0.2-0.1c0.1,0,0.1,0.1,0.1,0.2c0,0.2-0.1,0.4-0.2,0.8c-0.1,0.3-0.3,0.7-0.6,1.2
		s-0.5,0.8-0.8,1.2c-0.3,0.4-0.6,0.7-0.8,1C43.3,25.2,43.6,24.3,44,23.5z M10.1,26.5c0.2-0.3,0.4-0.5,0.6-0.8
		c0.2-0.2,0.5-0.4,0.7-0.5c0.2-0.1,0.4-0.2,0.5-0.2c0.1,0,0.2,0.1,0.2,0.2c0,0.1-0.1,0.3-0.3,0.6c-0.2,0.3-0.4,0.6-0.8,0.9
		c-0.4,0.3-0.8,0.6-1.3,0.8C9.8,27.1,9.9,26.8,10.1,26.5z M4.7,28.8c-0.2-0.1-0.4-0.2-0.6-0.2c-0.1,0-0.4,0-0.8,0
		c0.5-0.8,1.1-1.5,1.6-1.9C5.4,26.3,5.8,26,6.1,26c0.2,0,0.3,0.1,0.3,0.3c0,0.2-0.1,0.5-0.4,1C5.7,27.7,5.3,28.2,4.7,28.8z M20,28.7
		c-0.2-0.4-0.4-0.6-0.5-0.7c-0.1-0.1-0.4-0.2-0.7-0.3c1.1-1.1,1.9-1.9,2.2-2.3l0.2,1.3c0,0,0,0.1,0,0.1c0,0,0,0.1,0,0.2
		c0,0.5-0.1,0.9-0.3,1.1C20.7,28.3,20.4,28.6,20,28.7z M26.3,26.7c-0.1,0.4-0.2,0.7-0.2,1.1c0,0.2,0,0.5,0.1,0.8
		c-0.6,0.4-1,0.6-1.2,0.6c-0.5,0-0.8-0.2-0.8-0.6c0-0.1,0.1-0.4,0.2-1c0.1-0.2,0.2-0.5,0.5-0.7s0.5-0.5,0.8-0.7s0.7-0.5,1.2-0.8
		C26.7,25.9,26.5,26.3,26.3,26.7z M38,27.5c-0.5,0.6-1,1-1.6,1.4c-0.2,0.1-0.3,0.1-0.3,0.1c-0.1,0-0.2-0.1-0.3-0.2
		c-0.1-0.1-0.1-0.3-0.1-0.5c0-0.5,0.3-1,0.9-1.5c0.6-0.5,1.7-1.1,3.1-1.8C39.1,26.2,38.5,27,38,27.5z M50.6,32.4
		c-0.3,0.4-0.6,0.8-0.9,1c-0.3,0.2-0.6,0.3-0.8,0.3c-0.1,0-0.2-0.1-0.2-0.2c0-0.1,0.1-0.3,0.4-0.6c0.3-0.3,0.6-0.7,1-1
		s0.8-0.7,1.2-1C51.1,31.5,50.9,32,50.6,32.4z M57.5,27.5c-0.5,0.6-1,1-1.6,1.4c-0.2,0.1-0.3,0.1-0.3,0.1c-0.1,0-0.2-0.1-0.3-0.2
		c-0.1-0.1-0.1-0.3-0.1-0.5c0-0.5,0.3-1,0.9-1.5c0.6-0.5,1.7-1.1,3.1-1.8C58.6,26.2,58,27,57.5,27.5z M65.3,26.3
		c-0.1,0.2-0.2,0.4-0.4,0.5c-0.2,0.2-0.4,0.4-0.7,0.7c-0.3,0.3-0.5,0.5-0.6,0.6c-0.1,0.1-0.2,0.2-0.4,0.4c-0.2,0.2-0.4,0.3-0.5,0.4
		c-0.1,0.1-0.2,0.1-0.3,0.1c-0.1,0-0.2,0-0.2-0.1c-0.1-0.1-0.1-0.1-0.1-0.2c0-0.2,0-0.4,0.1-0.7c0.1-0.3,0.2-0.5,0.3-0.6
		c0.1-0.1,0.5-0.4,1.2-0.8c0.7-0.4,1.3-0.7,1.8-0.8C65.5,25.8,65.5,26.1,65.3,26.3z M71.2,26.7C71,27.1,71,27.5,71,27.8
		c0,0.2,0,0.5,0.1,0.8c-0.6,0.4-1,0.6-1.2,0.6c-0.5,0-0.8-0.2-0.8-0.6c0-0.1,0.1-0.4,0.2-1c0.1-0.2,0.2-0.5,0.5-0.7
		c0.2-0.2,0.5-0.5,0.8-0.7s0.7-0.5,1.2-0.8C71.5,25.9,71.3,26.3,71.2,26.7z M75.3,28.7c-0.2-0.4-0.4-0.6-0.5-0.7
		c-0.1-0.1-0.4-0.2-0.7-0.3c1.1-1.1,1.9-1.9,2.2-2.3l0.2,1.3c0,0,0,0.1,0,0.1c0,0,0,0.1,0,0.2c0,0.5-0.1,0.9-0.3,1.1
		C76,28.3,75.7,28.6,75.3,28.7z"/>
</g>
</svg>
