<?xml version="1.0" encoding="utf-8"?>
<!-- Generator: Adobe Illustrator 25.4.1, SVG Export Plug-In . SVG Version: 6.00 Build 0)  -->
<svg version="1.1" id="Capa_1" xmlns="http://www.w3.org/2000/svg" xmlns:xlink="http://www.w3.org/1999/xlink" x="0px" y="0px"
	 viewBox="0 0 95 95" style="enable-background:new 0 0 95 95;" xml:space="preserve">
<style type="text/css">
	.st0{fill:#45FF00;}
</style>
<g>
	<g>
		<polygon class="st0" points="81.1,13.9 61.4,13.9 81.1,33.6 		"/>
		<polygon class="st0" points="13.9,13.9 13.9,33.6 33.6,13.9 		"/>
		<polygon class="st0" points="13.9,81.1 33.6,81.1 13.9,61.4 		"/>
		<polygon class="st0" points="81.1,81.1 81.1,61.4 61.4,81.1 		"/>
		<polygon class="st0" points="0,47.5 13.9,61.4 13.9,33.6 		"/>
		<polygon class="st0" points="47.5,95 61.4,81.1 33.6,81.1 		"/>
		<polygon class="st0" points="81.1,33.6 81.1,61.4 95,47.5 		"/>
		<polygon class="st0" points="47.5,0 33.6,13.9 61.4,13.9 		"/>
		<polygon class="st0" points="35,55.9 60,55.9 47.5,34.2 		"/>
		<path class="st0" d="M47.5,17.9c-16.3,0-29.6,13.3-29.6,29.6s13.3,29.6,29.6,29.6s29.6-13.3,29.6-29.6S63.8,17.9,47.5,17.9z
			 M47.5,75.2c-15.3,0-27.7-12.4-27.7-27.7s12.4-27.7,27.7-27.7s27.7,12.4,27.7,27.7S62.8,75.2,47.5,75.2z"/>
	</g>
</g>
</svg>
