<?xml version="1.0" encoding="utf-8"?>
<!-- Generator: Adobe Illustrator 25.4.1, SVG Export Plug-In . SVG Version: 6.00 Build 0)  -->
<svg version="1.1" id="Capa_1" xmlns="http://www.w3.org/2000/svg" xmlns:xlink="http://www.w3.org/1999/xlink" x="0px" y="0px"
	 viewBox="0 0 95 95" style="enable-background:new 0 0 95 95;" xml:space="preserve">
<g>
	<path d="M38.9,23.7c-0.9-4.4-1.4-8.7-0.4-13.1c1.4-6,5.8-10.2,11.1-10.6c7.3-0.5,13.4,5,13.8,12.6c0.3,6.2-2,11.5-5.5,16.4
		c-1.6,2.2-3.4,4.2-5.4,6.4c4.9-1.6,9.4-3.5,13.4-6.6c3.9-3.1,6.6-7.1,9.2-11.5c2.8,1.9,5.6,3.8,8.5,5.8c-5.8,7.6-12,14.3-22.7,13.8
		c-2.9-0.1-5.7,0-8.6,0.2c4.8,0.6,8.9,2.8,13,5c2.7,1.4,5.4,2.9,8.2,4c4.1,1.7,8.3,1.4,12.2-0.7c0.3-0.2,0.7-0.3,1.2-0.5
		c1.3,3.1,2.5,6.2,3.8,9.3c-8,3-16.9,2.6-23.4-3.7c-1.5-1.5-3.1-2.9-4.5-4.5c-6.7-7.6-14.9-9.2-24.4-6.4c-5.6,1.7-11.2,3-17,2.6
		c-2.1-0.1-4.3-0.5-6.3-1.1C4.9,37.9,0.8,24.7,7.4,16.1c2.8-3.7,6.7-4.7,11.1-4.1c7.5,1,13.6,4.6,18.7,10
		C37.8,22.5,38.3,23.1,38.9,23.7z M35.6,38.2c0.8,0,2.5-0.1,4.2-0.2c1.6-0.1,3.4-3,2.5-4.4c-1.3-2.1-2.8-4.1-4.5-5.8
		c-3.9-3.8-8.4-6.9-14-7.8c-5.7-0.9-9.3,2.7-8.4,8.4c0.6,3.6,3,5.7,6,7.3C25.7,37.8,30.2,38.2,35.6,38.2z M48.7,36.3
		c3.4-3.5,5.5-7.4,6.5-11.9c0.7-3.3,0.5-6.5-1-9.6c-1-2-2.6-3.2-4.9-3.2c-2.3,0-3.8,1.2-4.7,3.2c-0.4,0.7-0.7,1.5-0.8,2.3
		c-1.4,5.7-0.7,11.3,0.6,16.9C46.1,33.9,47.8,34.1,48.7,36.3z"/>
	<path d="M43.9,95c-8.9,0-17.3,0-25.5,0c-0.6-13-1.1-25.9-1.7-39.1c8.3-0.8,16.9-1.6,25.9-2.4C43,67.5,43.5,81.2,43.9,95z"/>
	<path d="M73.8,95c-8,0-15.9,0-24,0c-0.3-13.8-0.6-27.7-0.9-41.8c0.8,0,1.5,0,2.1,0c4.5,0.2,9,0.3,13.5,0.5c0.5,0,1,0.2,1.4,0.5
		c2.5,1.4,5,2.8,7.6,4.1c0.8,0.4,1.1,0.8,1.1,1.7c-0.2,11.2-0.4,22.5-0.6,33.7C73.9,94,73.8,94.4,73.8,95z"/>
	<path d="M42,43c0.1,2.5,0.2,5.1,0.4,8.1c-9.9,0.4-19.6,0.8-29.4,1.2c0-2.5,0-5,0-7c5,0.1,9.8,0.4,14.6,0.1C32.4,44.9,37,43.8,42,43
		z"/>
	<path d="M49,50.3c0-2.6,0-5.3,0-8.2c5.7,0.3,9.2,4,12.9,8.2C57.4,50.3,53.3,50.3,49,50.3z"/>
	<path d="M68.5,40.1c3.7-2.4,7.5-2.4,11.5-2.1c-0.2,1.9-0.4,3.7-0.7,5.5c-0.1,0.4-0.8,0.9-1.2,0.9c-1.4-0.2-2.9-0.3-4.1-0.9
		C72.1,42.5,70.3,41.2,68.5,40.1z"/>
</g>
</svg>
